<svg version="1.1" id="Layer_1" xmlns="http://www.w3.org/2000/svg" xmlns:xlink="http://www.w3.org/1999/xlink" x="0px" y="0px"
	 width="100%" viewBox="0 0 866 650" enable-background="new 0 0 866 650" xml:space="preserve">
<path fill="#FEFFFF" opacity="1.000000" stroke="none" 
	d="
M611.000000,651.000000 
	C407.333344,651.000000 204.166672,651.000000 1.000000,651.000000 
	C1.000000,434.333344 1.000000,217.666672 1.000000,1.000000 
	C289.666656,1.000000 578.333313,1.000000 867.000000,1.000000 
	C867.000000,217.666672 867.000000,434.333344 867.000000,651.000000 
	C781.833313,651.000000 696.666687,651.000000 611.000000,651.000000 
M368.116211,434.179352 
	C367.707703,435.455994 367.299164,436.732666 366.735046,438.164917 
	C366.735046,438.164917 366.800812,438.374908 366.234161,438.871155 
	C363.088867,446.216858 359.943573,453.562592 356.192047,461.205017 
	C352.009308,463.627563 347.826599,466.050110 343.185669,468.738037 
	C343.185669,469.251343 343.185669,470.707916 343.185669,472.395752 
	C356.152191,472.395752 368.893677,472.395752 381.726685,472.395752 
	C381.726685,470.492126 381.726685,468.922028 381.726685,467.434692 
	C378.762024,466.877075 376.122955,466.529633 373.564606,465.869446 
	C367.689117,464.353302 366.327515,462.361267 367.945618,456.606384 
	C369.785980,450.060852 372.116577,443.653107 374.558472,437.187897 
	C374.919891,437.242126 375.208466,437.137451 376.214539,436.946991 
	C376.474030,436.895447 376.733551,436.843872 377.917664,436.964508 
	C387.408936,436.979004 396.904266,436.855957 406.387756,437.134949 
	C408.091980,437.185120 410.666107,438.498474 411.268585,439.902344 
	C414.080750,446.455078 416.329041,453.249054 418.806671,459.946503 
	C420.004333,463.184113 418.849915,465.078064 415.559418,465.749908 
	C412.646088,466.344727 409.718231,466.868561 406.510925,467.478058 
	C406.510925,469.038391 406.510925,470.605988 406.510925,472.450317 
	C420.821960,472.450317 434.881866,472.450317 449.198303,472.450317 
	C449.198303,470.586945 449.198303,469.013306 449.198303,467.146301 
	C440.098572,466.580536 435.806061,461.072845 432.845673,453.197723 
	C422.553925,425.820221 411.885559,398.583771 401.211456,371.352081 
	C400.647339,369.912964 398.786499,368.205566 397.398010,368.080414 
	C395.957428,367.950592 393.469086,369.242065 392.962738,370.517059 
	C387.382904,384.567352 382.100464,398.735748 376.839905,412.895935 
	C376.839905,412.895935 376.804932,412.796661 376.264801,413.246277 
	C373.694855,420.077393 371.124908,426.908539 368.668152,433.979126 
	C368.668152,433.979126 368.605164,433.721863 368.116211,434.179352 
M450.118286,138.345230 
	C452.382263,143.734955 450.078888,148.725067 448.111664,154.004822 
	C442.762970,161.060364 436.551453,167.430725 432.768158,175.695404 
	C430.716278,180.177765 427.276184,184.024673 424.084930,188.712601 
	C421.160828,184.994934 418.614899,182.170563 416.559937,179.025406 
	C414.640778,176.088135 413.921997,172.069031 411.479309,169.831116 
	C405.765228,164.596191 401.926300,158.323349 399.317383,151.271118 
	C398.355133,148.669983 397.240540,148.263428 394.706055,148.410294 
	C393.755859,144.380859 392.805664,140.351410 391.586121,135.601639 
	C386.691833,134.409531 381.813538,132.278275 376.900421,132.194748 
	C359.530975,131.899506 342.148560,132.250809 324.775787,132.596054 
	C323.854370,132.614349 322.976501,134.826523 322.093750,136.775620 
	C328.486420,138.979156 334.290833,141.716888 338.324249,147.760315 
	C355.599396,173.644470 373.236084,199.287704 390.450806,225.211426 
	C392.521515,228.329697 393.676666,232.595032 393.793488,236.373901 
	C394.194672,249.355499 393.608734,262.368927 394.060638,275.347168 
	C394.371094,284.264130 392.810944,291.324310 382.486572,293.342957 
	C404.604370,293.553497 426.403290,293.607727 448.201294,293.490417 
	C451.199432,293.474304 454.192963,292.606171 458.018768,292.001221 
	C453.133698,288.280396 451.462738,284.294769 451.511505,279.313477 
	C451.643585,265.824799 451.751923,252.331696 451.533783,238.845795 
	C451.443268,233.247940 452.965637,228.551575 456.117584,223.948914 
	C475.197327,196.087662 494.107025,168.110001 513.752686,140.010864 
	C515.526611,138.917633 517.300476,137.824387 519.795410,136.286804 
	C495.618927,136.286804 472.333588,136.286804 448.523651,136.286804 
	C449.447998,136.943344 449.847656,137.227219 450.118286,138.345230 
M689.070190,385.119171 
	C685.508728,380.660004 682.813110,374.051941 678.203308,372.194672 
	C668.968689,368.474091 659.851624,362.508728 648.846436,364.913361 
	C646.369507,365.454590 643.602844,364.530518 640.969788,364.533173 
	C638.059937,364.536102 635.265869,364.990112 634.443787,369.024414 
	C634.069702,369.077881 633.695679,369.131348 632.489563,369.061096 
	C628.868469,370.116608 624.715454,370.375305 621.723083,372.372650 
	C611.579651,379.142975 603.330566,388.284576 600.441589,400.083954 
	C596.651489,415.564087 595.896729,431.238922 602.870239,446.722198 
	C610.434021,463.516144 622.510254,473.567261 640.662415,476.065674 
	C655.545349,478.114105 669.404419,476.254089 681.797729,466.345398 
	C688.246582,461.189423 692.637024,454.731995 695.787964,447.764526 
	C701.814697,434.437866 704.434814,420.293335 699.911743,405.755615 
	C697.782715,398.912872 696.446289,391.573517 689.853760,386.490417 
	C689.660400,386.237854 689.427063,386.030243 689.070190,385.119171 
M474.206390,376.695221 
	C474.206390,376.695221 474.264282,376.684418 474.157684,377.484985 
	C474.586426,381.848969 477.465240,385.260223 477.282104,390.238312 
	C476.591553,409.006409 476.831207,427.817810 477.121674,446.606781 
	C477.197266,451.498535 478.500885,456.316986 475.907959,460.975922 
	C475.037018,462.540802 474.624268,464.360718 473.733765,466.263458 
	C473.733765,466.263458 473.419250,466.150024 472.651245,466.036957 
	C471.100037,466.301178 469.548859,466.565399 467.469238,467.045441 
	C467.002533,467.364410 466.535828,467.683411 465.446259,468.058868 
	C465.633118,469.038971 465.819946,470.019073 466.393646,471.666534 
	C466.769318,471.976135 467.144043,472.555176 467.520752,472.556427 
	C481.291565,472.602722 495.062592,472.595337 509.117859,472.595337 
	C509.117859,470.578766 509.117859,468.998230 509.117859,467.295715 
	C507.981964,467.112671 507.002777,466.984894 506.035980,466.794434 
	C497.277863,465.069031 496.041565,463.513458 496.008484,454.459991 
	C495.970154,443.974762 495.884918,433.489716 496.153412,422.557678 
	C496.457275,422.345917 496.761139,422.134125 497.977722,422.070770 
	C512.295959,422.022888 526.614136,421.975006 541.784485,422.094910 
	C542.538452,423.062256 543.936340,424.021790 543.948242,424.998138 
	C544.087708,436.494965 544.037109,447.994354 543.996033,459.492950 
	C543.982910,463.150635 542.172607,465.462158 538.530029,466.158661 
	C536.738159,466.501251 534.792053,466.385864 533.151672,467.055511 
	C531.979126,467.534210 530.758911,468.851715 530.429688,470.036560 
	C530.265869,470.626007 532.047241,472.519531 532.964966,472.531067 
	C546.249023,472.698029 559.535889,472.645416 573.107544,472.645416 
	C573.107544,470.594696 573.107544,469.017548 573.107544,467.354614 
	C572.288208,467.189758 571.651489,467.047119 571.009583,466.934662 
	C561.129333,465.203522 559.976807,463.855255 559.975159,453.970917 
	C559.971619,432.139740 559.970764,410.308533 559.971497,388.477356 
	C559.971924,376.994965 560.609436,376.279144 572.059265,374.770844 
	C572.354248,374.731995 572.619263,374.465698 573.093140,374.193481 
	C573.093140,372.712372 573.093140,371.128845 573.093140,369.468475 
	C558.748779,369.468475 544.698242,369.468475 530.693970,369.468475 
	C530.187317,374.270020 530.187317,374.269989 534.460693,375.274536 
	C542.377991,377.135712 544.075562,379.238281 544.050110,387.256409 
	C544.020447,396.587677 543.962769,405.918884 543.071838,415.275085 
	C540.357056,415.448578 537.642334,415.622070 534.169434,415.608459 
	C533.136169,415.669006 532.102844,415.729553 530.312134,415.481567 
	C521.843506,415.570801 513.374939,415.660065 504.074707,415.537750 
	C502.082520,415.594086 500.090332,415.650421 497.628601,415.408997 
	C497.082764,415.300018 496.536896,415.191010 495.997437,414.370697 
	C495.937378,413.901947 495.877319,413.433197 495.991272,412.046600 
	C495.992249,401.695648 495.993225,391.344727 496.336670,380.378387 
	C498.684082,374.493378 504.661804,376.072998 509.130188,374.311707 
	C509.130188,372.651306 509.130188,371.072754 509.130188,368.884125 
	C504.885345,368.884125 500.939331,368.884125 496.419617,368.352631 
	C494.170776,367.940521 491.899109,367.102661 489.678741,367.221771 
	C486.763977,367.378113 483.889618,368.288574 480.172607,369.025970 
	C478.779755,368.980103 477.386871,368.934204 475.511658,368.392548 
	C474.009521,368.556274 472.507385,368.719971 470.273407,369.038666 
	C468.887543,369.357666 467.501648,369.676666 465.538055,370.388245 
	C465.738312,371.606812 465.938538,372.825378 466.578278,374.353943 
	C467.046692,374.613281 467.515106,374.872620 468.174744,375.872986 
	C470.184570,376.166687 472.194397,376.460388 474.206390,376.695221 
M313.013977,384.975342 
	C313.013977,384.975342 313.140472,384.894470 312.940613,384.254608 
	C306.026306,377.328156 297.632874,372.108948 288.151184,371.243164 
	C268.526276,369.451172 248.765366,369.148804 229.264587,368.243347 
	C227.880859,372.813812 228.148926,374.638428 232.330017,375.226837 
	C240.234787,376.339142 241.932770,378.744263 241.938904,386.936859 
	C241.955383,408.923615 241.940155,430.910400 241.942184,452.897156 
	C241.943359,465.560760 241.752594,465.774323 229.082169,467.223755 
	C228.795837,467.256500 228.540756,467.562347 227.920593,467.972809 
	C228.024307,469.322540 228.142639,470.862274 228.245743,472.204193 
	C245.060745,472.204193 261.413116,473.057098 277.643677,472.014374 
	C305.505096,470.224365 329.994080,451.166687 327.027802,415.831940 
	C326.029724,403.942657 322.467743,393.057037 313.013977,384.975342 
M684.114441,279.189636 
	C696.017090,269.161774 702.796753,256.390778 704.840454,240.333359 
	C704.833069,239.892105 704.825745,239.450836 705.069885,238.210312 
	C705.387451,231.056519 705.937561,223.904114 705.979858,216.748688 
	C706.115845,193.757019 706.159241,170.763611 706.008118,147.772385 
	C705.976379,142.951752 707.822388,140.307266 712.381897,139.157608 
	C714.524170,138.617447 716.568542,137.689163 718.657288,136.936752 
	C718.578125,136.570602 718.498962,136.204453 718.419739,135.838303 
	C692.562988,135.838303 666.706177,135.838303 640.849426,135.838303 
	C641.955383,137.338791 643.240051,137.950363 644.584961,138.367508 
	C651.830505,140.614868 653.175049,142.323441 653.164246,149.662430 
	C653.125183,176.320251 653.351074,202.983948 652.795227,229.631226 
	C652.672913,235.492477 650.805664,241.895966 647.901367,247.002960 
	C641.377930,258.473724 626.983582,263.092743 613.282043,259.349426 
	C599.952087,255.707642 591.424561,245.266861 591.170532,230.177811 
	C590.713562,203.028992 591.010315,175.867569 590.976318,148.711441 
	C590.970886,144.353958 592.956543,141.520660 597.082458,140.030258 
	C599.304565,139.227585 601.407959,138.096603 603.564941,137.113739 
	C603.464294,136.788788 603.363647,136.463821 603.263000,136.138870 
	C579.432068,136.138870 555.601135,136.138870 530.253418,136.138870 
	C538.359070,140.020370 538.405701,146.394531 538.432434,152.831345 
	C538.544983,179.983887 538.502869,207.139069 538.893066,234.287888 
	C539.272583,260.692078 552.590393,279.403900 577.055786,289.154175 
	C602.460266,299.278656 628.387756,299.030487 654.596130,293.285736 
	C665.264526,290.947266 675.262146,287.055939 683.404114,279.248566 
	C683.404114,279.248566 683.487671,279.391296 684.114441,279.189636 
M163.591690,369.112244 
	C160.991348,369.112244 158.391022,369.112244 155.890060,369.112244 
	C154.915192,372.828979 155.128616,374.932007 159.100235,375.190033 
	C161.370331,375.337524 163.596954,376.302765 165.821259,376.972473 
	C169.304596,378.021301 170.925064,380.424347 170.922150,384.045227 
	C170.901962,409.032654 170.918228,434.020142 170.880371,459.007507 
	C170.874252,463.053314 168.890594,465.601288 164.749954,466.193634 
	C161.816025,466.613281 158.875717,466.988312 155.773590,467.405426 
	C155.773590,469.115814 155.773590,470.658997 155.773590,472.288239 
	C171.335632,472.288239 186.539398,472.288239 201.769760,472.288239 
	C201.769760,470.458160 201.769760,469.020905 201.769760,467.474548 
	C199.460297,467.008057 197.360275,466.621490 195.277802,466.156464 
	C187.992630,464.529602 186.758530,463.038330 186.674240,455.703705 
	C186.632126,452.039368 186.664200,448.374115 186.666153,444.709290 
	C186.676865,424.719452 186.644760,404.729431 186.725479,384.739868 
	C186.751404,378.317566 187.970367,376.953278 194.246918,375.626984 
	C196.657730,375.117554 199.120483,374.853882 201.744598,374.449738 
	C201.744598,372.667053 201.744598,371.111237 201.744598,369.106995 
	C189.162888,369.106995 176.865829,369.106995 163.591690,369.112244 
M266.541931,293.911926 
	C270.028412,293.621460 273.516266,293.346710 277.001129,293.037964 
	C303.927063,290.652618 319.604523,276.531342 321.550385,251.984146 
	C322.940002,234.454269 317.626068,218.244843 298.154327,211.348175 
	C297.213501,211.014938 296.467682,210.131104 295.238434,209.209213 
	C297.136536,208.057617 298.528229,207.215759 299.917480,206.369965 
	C314.545746,197.464172 318.166931,183.894089 316.039398,167.988052 
	C314.086609,153.388214 305.763885,143.827011 291.728516,140.127380 
	C282.752228,137.761292 273.355865,135.904953 264.122833,135.787582 
	C227.303070,135.319519 190.473495,135.619476 153.647583,135.659012 
	C152.639832,135.660095 151.632370,135.931915 150.630157,136.076721 
	C150.726028,136.717377 150.696701,136.975739 150.781845,137.021591 
	C151.901199,137.624496 153.000763,138.285492 154.173843,138.763840 
	C163.240311,142.461121 163.274887,142.449722 163.281891,152.103424 
	C163.302551,180.597992 163.298523,209.092545 163.301636,237.587112 
	C163.303146,251.417831 163.346848,265.248779 163.280060,279.079163 
	C163.237747,287.843964 162.355530,288.854919 153.943695,291.141418 
	C152.519669,291.528503 151.164413,292.168640 149.777390,292.691833 
	C149.877457,293.270477 149.977509,293.849152 150.077576,294.427795 
	C188.584076,294.365356 227.082550,296.162903 266.541931,293.911926 
M660.499878,331.462891 
	C667.823059,331.595367 675.149597,331.631531 682.468506,331.886627 
	C690.265991,332.158417 701.798401,330.834351 702.860779,329.188965 
	C518.488403,329.188965 334.235962,329.188965 149.983551,329.188965 
	C151.127502,330.457703 152.436584,331.089508 153.768250,331.141418 
	C159.071777,331.347931 164.382370,331.454315 169.690338,331.454742 
	C332.960175,331.467682 496.230042,331.463715 660.499878,331.462891 
z"/>
<path fill="#0F65B2" opacity="1.000000" stroke="none" 
	d="
M704.818359,239.009583 
	C704.825745,239.450836 704.833069,239.892105 704.370361,240.719025 
	C703.276367,242.177292 702.372498,243.179169 702.080444,244.335587 
	C701.155640,247.997101 701.344604,252.252472 699.495728,255.304749 
	C695.290100,262.247955 690.088867,268.584320 685.387634,275.234802 
	C684.523560,276.457153 684.109436,277.997650 683.487671,279.391296 
	C683.487671,279.391296 683.404114,279.248566 683.021606,279.312988 
	C680.805786,280.056915 678.878601,280.555695 677.157349,281.450562 
	C672.387207,283.930420 667.974792,287.754578 662.929993,288.917816 
	C651.212769,291.619507 639.268616,293.738159 627.301086,294.845978 
	C614.075073,296.070312 600.698303,295.345490 588.011169,290.876343 
	C580.505188,288.232269 573.193298,284.808380 566.211121,280.975555 
	C560.153748,277.650391 555.506470,272.725983 551.320251,266.867249 
	C546.861572,260.627197 543.345520,254.074982 542.261841,246.915176 
	C540.632263,236.148636 540.359985,225.138962 540.067017,214.217712 
	C539.727539,201.566223 540.055298,188.898132 539.972778,176.238052 
	C539.891174,163.720642 539.659119,151.204208 539.486755,138.215149 
	C539.029968,138.349243 539.645996,138.011688 540.262634,138.010376 
	C555.921509,137.977188 571.580811,137.931335 587.238831,138.047501 
	C588.845215,138.059418 590.444031,139.077469 590.876770,139.226318 
	C590.162903,143.948212 589.131226,147.682587 589.108459,151.423080 
	C588.960388,175.743942 588.985474,200.066299 589.077271,224.387726 
	C589.092224,228.344559 589.219727,232.423172 590.163513,236.230225 
	C592.515320,245.716660 596.451233,254.015579 606.061462,258.816528 
	C614.671753,263.117950 623.548157,262.337646 632.330017,261.416565 
	C636.338440,260.996124 640.908386,258.670624 643.744080,255.765106 
	C650.704529,248.633270 655.103882,240.075806 655.036804,229.557419 
	C654.863831,202.404770 655.002686,175.250244 654.932373,148.096664 
	C654.927429,146.187866 654.598328,144.104904 653.785400,142.406693 
	C651.524231,137.683258 651.773926,137.015182 657.030762,136.999695 
	C672.023499,136.955536 687.016663,136.953049 702.009094,137.032745 
	C703.615601,137.041275 705.218689,137.698044 705.925049,137.854782 
	C705.213074,143.080490 704.134460,147.421204 704.108765,151.768158 
	C703.946899,179.087555 704.004333,206.408386 704.048584,233.728622 
	C704.051453,235.489365 704.550293,237.249283 704.818359,239.009583 
z"/>
<path fill="#1E69AC" opacity="1.000000" stroke="none" 
	d="
M164.080231,369.109619 
	C176.865829,369.106995 189.162888,369.106995 201.744598,369.106995 
	C201.744598,371.111237 201.744598,372.667053 201.744598,374.449738 
	C199.120483,374.853882 196.657730,375.117554 194.246918,375.626984 
	C187.970367,376.953278 186.751404,378.317566 186.725479,384.739868 
	C186.644760,404.729431 186.676865,424.719452 186.666153,444.709290 
	C186.664200,448.374115 186.632126,452.039368 186.674240,455.703705 
	C186.758530,463.038330 187.992630,464.529602 195.277802,466.156464 
	C197.360275,466.621490 199.460297,467.008057 201.769760,467.474548 
	C201.769760,469.020905 201.769760,470.458160 201.769760,472.288239 
	C186.539398,472.288239 171.335632,472.288239 155.773590,472.288239 
	C155.773590,470.658997 155.773590,469.115814 155.773590,467.405426 
	C158.875717,466.988312 161.816025,466.613281 164.749954,466.193634 
	C168.890594,465.601288 170.874252,463.053314 170.880371,459.007507 
	C170.918228,434.020142 170.901962,409.032654 170.922150,384.045227 
	C170.925064,380.424347 169.304596,378.021301 165.821259,376.972473 
	C163.596954,376.302765 161.370331,375.337524 159.100235,375.190033 
	C155.128616,374.932007 154.915192,372.828979 155.890060,369.112244 
	C158.391022,369.112244 160.991348,369.112244 164.080231,369.109619 
z"/>
<path fill="#3E72A0" opacity="1.000000" stroke="none" 
	d="
M704.944092,238.609955 
	C704.550293,237.249283 704.051453,235.489365 704.048584,233.728622 
	C704.004333,206.408386 703.946899,179.087555 704.108765,151.768158 
	C704.134460,147.421204 705.213074,143.080490 705.925049,137.854782 
	C705.218689,137.698044 703.615601,137.041275 702.009094,137.032745 
	C687.016663,136.953049 672.023499,136.955536 657.030762,136.999695 
	C651.773926,137.015182 651.524231,137.683258 653.785400,142.406693 
	C654.598328,144.104904 654.927429,146.187866 654.932373,148.096664 
	C655.002686,175.250244 654.863831,202.404770 655.036804,229.557419 
	C655.103882,240.075806 650.704529,248.633270 643.744080,255.765106 
	C640.908386,258.670624 636.338440,260.996124 632.330017,261.416565 
	C623.548157,262.337646 614.671753,263.117950 606.061462,258.816528 
	C596.451233,254.015579 592.515320,245.716660 590.163513,236.230225 
	C589.219727,232.423172 589.092224,228.344559 589.077271,224.387726 
	C588.985474,200.066299 588.960388,175.743942 589.108459,151.423080 
	C589.131226,147.682587 590.162903,143.948212 590.876770,139.226318 
	C590.444031,139.077469 588.845215,138.059418 587.238831,138.047501 
	C571.580811,137.931335 555.921509,137.977188 540.262634,138.010376 
	C539.645996,138.011688 539.029968,138.349243 539.486755,138.215149 
	C539.659119,151.204208 539.891174,163.720642 539.972778,176.238052 
	C540.055298,188.898132 539.727539,201.566223 540.067017,214.217712 
	C540.359985,225.138962 540.632263,236.148636 542.261841,246.915176 
	C543.345520,254.074982 546.861572,260.627197 551.320251,266.867249 
	C555.506470,272.725983 560.153748,277.650391 566.211121,280.975555 
	C573.193298,284.808380 580.505188,288.232269 588.011169,290.876343 
	C600.698303,295.345490 614.075073,296.070312 627.301086,294.845978 
	C639.268616,293.738159 651.212769,291.619507 662.929993,288.917816 
	C667.974792,287.754578 672.387207,283.930420 677.157349,281.450562 
	C678.878601,280.555695 680.805786,280.056915 683.026855,279.395508 
	C675.262146,287.055939 665.264526,290.947266 654.596130,293.285736 
	C628.387756,299.030487 602.460266,299.278656 577.055786,289.154175 
	C552.590393,279.403900 539.272583,260.692078 538.893066,234.287888 
	C538.502869,207.139069 538.544983,179.983887 538.432434,152.831345 
	C538.405701,146.394531 538.359070,140.020370 530.253418,136.138870 
	C555.601135,136.138870 579.432068,136.138870 603.263000,136.138870 
	C603.363647,136.463821 603.464294,136.788788 603.564941,137.113739 
	C601.407959,138.096603 599.304565,139.227585 597.082458,140.030258 
	C592.956543,141.520660 590.970886,144.353958 590.976318,148.711441 
	C591.010315,175.867569 590.713562,203.028992 591.170532,230.177811 
	C591.424561,245.266861 599.952087,255.707642 613.282043,259.349426 
	C626.983582,263.092743 641.377930,258.473724 647.901367,247.002960 
	C650.805664,241.895966 652.672913,235.492477 652.795227,229.631226 
	C653.351074,202.983948 653.125183,176.320251 653.164246,149.662430 
	C653.175049,142.323441 651.830505,140.614868 644.584961,138.367508 
	C643.240051,137.950363 641.955383,137.338791 640.849426,135.838303 
	C666.706177,135.838303 692.562988,135.838303 718.419739,135.838303 
	C718.498962,136.204453 718.578125,136.570602 718.657288,136.936752 
	C716.568542,137.689163 714.524170,138.617447 712.381897,139.157608 
	C707.822388,140.307266 705.976379,142.951752 706.008118,147.772385 
	C706.159241,170.763611 706.115845,193.757019 705.979858,216.748688 
	C705.937561,223.904114 705.387451,231.056519 704.944092,238.609955 
z"/>
<path fill="#366FA0" opacity="1.000000" stroke="none" 
	d="
M266.070129,293.930237 
	C227.082550,296.162903 188.584076,294.365356 150.077576,294.427795 
	C149.977509,293.849152 149.877457,293.270477 149.777390,292.691833 
	C151.164413,292.168640 152.519669,291.528503 153.943695,291.141418 
	C162.355530,288.854919 163.237747,287.843964 163.280060,279.079163 
	C163.346848,265.248779 163.303146,251.417831 163.301636,237.587112 
	C163.298523,209.092545 163.302551,180.597992 163.281891,152.103424 
	C163.274887,142.449722 163.240311,142.461121 154.173843,138.763840 
	C153.000763,138.285492 151.901199,137.624496 150.781845,137.021591 
	C150.696701,136.975739 150.726028,136.717377 150.630157,136.076721 
	C151.632370,135.931915 152.639832,135.660095 153.647583,135.659012 
	C190.473495,135.619476 227.303070,135.319519 264.122833,135.787582 
	C273.355865,135.904953 282.752228,137.761292 291.728516,140.127380 
	C305.763885,143.827011 314.086609,153.388214 316.039398,167.988052 
	C318.166931,183.894089 314.545746,197.464172 299.917480,206.369965 
	C298.528229,207.215759 297.136536,208.057617 295.238434,209.209213 
	C296.467682,210.131104 297.213501,211.014938 298.154327,211.348175 
	C317.626068,218.244843 322.940002,234.454269 321.550385,251.984146 
	C319.604523,276.531342 303.927063,290.652618 277.001129,293.037964 
	C273.516266,293.346710 270.028412,293.621460 266.070129,293.930237 
M205.289902,293.010559 
	C213.373810,293.012756 221.466751,293.258698 229.539490,292.959381 
	C241.297455,292.523468 253.033600,291.436768 264.792511,291.106750 
	C276.554840,290.776611 287.692505,289.483917 298.682007,284.054871 
	C312.123352,277.414581 317.546997,266.524170 318.785126,252.997253 
	C319.373199,246.572479 318.149353,239.736862 316.501343,233.411728 
	C314.216492,224.642120 308.832123,218.140945 299.665863,215.171982 
	C296.887878,214.272202 294.597412,211.867325 291.705292,209.893616 
	C294.745514,207.094040 296.742096,204.165802 299.496887,202.936096 
	C306.085663,199.994949 309.270905,194.094299 311.784454,188.384338 
	C313.872986,183.639816 313.782013,177.769745 313.946808,172.376572 
	C314.391296,157.826935 305.582611,148.649033 293.570099,143.745834 
	C284.492188,140.040436 274.037048,138.422760 264.148102,138.225906 
	C231.282303,137.571655 198.395401,137.978546 164.819702,137.978546 
	C165.192642,143.329803 165.940536,148.897522 165.910858,154.461090 
	C165.693359,195.247894 165.368515,236.034409 164.931717,276.819427 
	C164.879959,281.651855 163.946899,286.474854 163.338959,292.069824 
	C176.442078,292.370819 190.390488,292.691254 205.289902,293.010559 
z"/>
<path fill="#2F6C9E" opacity="1.000000" stroke="none" 
	d="
M313.104431,384.855286 
	C322.467743,393.057037 326.029724,403.942657 327.027802,415.831940 
	C329.994080,451.166687 305.505096,470.224365 277.643677,472.014374 
	C261.413116,473.057098 245.060745,472.204193 228.245743,472.204193 
	C228.142639,470.862274 228.024307,469.322540 227.920593,467.972809 
	C228.540756,467.562347 228.795837,467.256500 229.082169,467.223755 
	C241.752594,465.774323 241.943359,465.560760 241.942184,452.897156 
	C241.940155,430.910400 241.955383,408.923615 241.938904,386.936859 
	C241.932770,378.744263 240.234787,376.339142 232.330017,375.226837 
	C228.148926,374.638428 227.880859,372.813812 229.264587,368.243347 
	C248.765366,369.148804 268.526276,369.451172 288.151184,371.243164 
	C297.632874,372.108948 306.026306,377.328156 312.660065,384.611542 
	C311.278992,384.648895 309.855469,384.661987 309.129211,383.956909 
	C303.495087,378.487030 296.023102,376.708435 289.150513,373.715973 
	C283.260834,371.151459 279.055695,370.986023 274.927307,373.856598 
	C293.126007,373.700623 301.949036,386.229126 308.017700,399.453247 
	C311.836761,407.775299 310.691650,418.458252 311.332153,428.111328 
	C311.556488,431.492126 310.604645,434.988129 309.941315,438.382935 
	C308.569366,445.404236 306.781860,452.233673 301.176666,457.374023 
	C298.983704,459.385162 297.180511,461.821350 295.199799,464.063965 
	C295.479340,464.438141 295.758911,464.812317 296.038452,465.186462 
	C297.304840,464.680817 298.833038,464.470917 299.794037,463.620239 
	C305.002350,459.009796 312.251373,456.812775 315.305634,449.585510 
	C317.353851,444.738861 321.372223,440.597321 322.810242,435.646851 
	C325.802643,425.345215 325.715820,414.739502 322.240906,404.415009 
	C321.328125,401.703064 319.851074,399.180420 318.625916,396.574280 
	C316.788788,392.666351 314.945251,388.761475 313.104431,384.855286 
M257.816437,414.500000 
	C257.818939,427.993317 257.769440,441.486938 257.847168,454.979828 
	C257.882904,461.181671 260.061523,464.518250 265.602112,465.528137 
	C281.077881,468.348999 296.724304,463.844696 304.185394,447.942963 
	C309.170746,437.317627 309.690826,426.044098 308.833099,414.699310 
	C306.734009,386.934998 285.679932,370.965637 257.816315,376.287231 
	C257.816315,388.605896 257.816315,401.052948 257.816437,414.500000 
M244.969620,450.445984 
	C244.914612,456.043488 245.279221,461.530731 241.521332,466.581482 
	C239.503021,469.294189 242.356567,469.962189 244.794769,470.035736 
	C253.414032,470.295807 262.029999,470.665161 270.649170,470.928833 
	C271.269867,470.947784 271.906342,470.450134 272.535492,470.192688 
	C272.476227,469.783936 272.416962,469.375183 272.357727,468.966431 
	C270.793549,468.966431 269.183777,469.208099 267.673431,468.923004 
	C262.240906,467.897614 256.325806,464.338837 256.035339,459.769226 
	C255.688782,454.316559 255.105713,448.865021 255.062668,443.409546 
	C254.933899,427.091370 255.014771,410.771454 255.021912,394.452240 
	C255.025177,386.963776 255.060669,379.477295 258.545532,372.614502 
	C251.000214,372.614502 243.703003,372.614502 235.837341,372.614502 
	C236.645828,373.702942 236.848724,374.268494 237.232773,374.449371 
	C243.002533,377.166260 247.672211,380.446899 245.013657,388.029175 
	C244.701538,388.919373 244.967133,390.012634 244.967133,391.011749 
	C244.967194,410.494904 244.967590,429.978088 244.969620,450.445984 
M233.056656,470.803040 
	C234.212433,470.682861 235.368195,470.562683 236.523972,470.442474 
	C236.374176,469.899841 236.224396,469.357208 236.074600,468.814575 
	C234.890244,469.321930 233.705887,469.829254 233.056656,470.803040 
z"/>
<path fill="#395C85" opacity="1.000000" stroke="none" 
	d="
M659.999878,331.462616 
	C496.230042,331.463715 332.960175,331.467682 169.690338,331.454742 
	C164.382370,331.454315 159.071777,331.347931 153.768250,331.141418 
	C152.436584,331.089508 151.127502,330.457703 149.983551,329.188965 
	C334.235962,329.188965 518.488403,329.188965 702.860779,329.188965 
	C701.798401,330.834351 690.265991,332.158417 682.468506,331.886627 
	C675.149597,331.631531 667.823059,331.595367 659.999878,331.462616 
z"/>
<path fill="#2A689A" opacity="1.000000" stroke="none" 
	d="
M391.855469,136.321960 
	C392.805664,140.351410 393.755859,144.380859 394.827332,149.065430 
	C395.734894,151.178925 396.421722,152.702087 397.322968,154.085587 
	C405.923584,167.288467 414.560486,180.467697 422.799744,193.754700 
	C421.370361,193.562286 419.917419,193.604172 419.356964,192.917542 
	C416.899231,189.906387 414.524170,186.796051 412.439819,183.517807 
	C406.365997,173.964798 400.106384,164.502228 394.625092,154.613159 
	C392.285492,150.392151 388.065033,146.423264 389.764343,140.529999 
	C389.910889,140.021820 387.831238,138.136124 386.774384,138.126450 
	C369.815735,137.971130 352.855255,138.016846 334.278717,138.016846 
	C337.167267,141.960007 339.305847,144.883118 341.448364,147.803329 
	C346.838440,155.149918 352.396271,162.380737 357.565887,169.879257 
	C361.325989,175.333313 364.396057,181.259827 368.089722,186.763672 
	C374.568756,196.417816 381.631287,205.696335 387.782562,215.548553 
	C391.497986,221.499420 396.475708,228.224197 396.503601,234.620346 
	C396.584991,253.265060 399.926025,272.230103 394.033752,290.630859 
	C413.008911,290.630859 432.221802,290.630859 451.282104,290.630859 
	C450.483368,286.262451 449.185883,282.251160 449.113861,278.217987 
	C448.855133,263.723907 448.959930,249.222015 449.065369,234.724091 
	C449.080566,232.634720 449.297119,230.194885 450.368896,228.526443 
	C454.872620,221.515503 459.784119,214.768158 464.456238,207.863312 
	C469.826569,199.926620 475.048431,191.889297 480.430145,183.960434 
	C489.788361,170.173019 499.233032,156.444275 508.589478,142.655655 
	C509.179169,141.786636 509.320160,140.613144 509.867584,138.998093 
	C507.366943,138.998093 505.359100,139.241364 503.445129,138.921936 
	C501.884735,138.661530 500.436676,137.728180 499.404846,137.066895 
	C502.942413,137.027206 506.065735,136.679520 509.063141,137.144135 
	C510.521332,137.370178 511.744171,139.114334 513.073547,140.171249 
	C494.107025,168.110001 475.197327,196.087662 456.117584,223.948914 
	C452.965637,228.551575 451.443268,233.247940 451.533783,238.845795 
	C451.751923,252.331696 451.643585,265.824799 451.511505,279.313477 
	C451.462738,284.294769 453.133698,288.280396 458.018768,292.001221 
	C454.192963,292.606171 451.199432,293.474304 448.201294,293.490417 
	C426.403290,293.607727 404.604370,293.553497 382.486572,293.342957 
	C392.810944,291.324310 394.371094,284.264130 394.060638,275.347168 
	C393.608734,262.368927 394.194672,249.355499 393.793488,236.373901 
	C393.676666,232.595032 392.521515,228.329697 390.450806,225.211426 
	C373.236084,199.287704 355.599396,173.644470 338.324249,147.760315 
	C334.290833,141.716888 328.486420,138.979156 322.544373,136.340698 
	C338.972565,135.899643 354.950317,135.849991 370.927673,135.907501 
	C377.904022,135.932617 384.879578,136.177094 391.855469,136.321960 
z"/>
<path fill="#2D6CA1" opacity="1.000000" stroke="none" 
	d="
M497.065033,421.922363 
	C496.761139,422.134125 496.457275,422.345917 495.759491,422.898010 
	C494.926178,423.496552 494.486786,423.754761 493.932587,423.710999 
	C493.871704,420.061981 493.928284,416.715027 493.978241,413.367950 
	C494.000031,411.908142 494.008118,410.448090 494.274780,409.194641 
	C494.957153,410.588898 495.387207,411.776672 495.817230,412.964447 
	C495.877319,413.433197 495.937378,413.901947 496.034973,415.026611 
	C496.747711,415.690613 497.422913,415.698669 498.098145,415.706757 
	C500.090332,415.650421 502.082520,415.594086 504.760773,415.981293 
	C512.482117,416.612061 519.516907,416.874115 526.553162,416.926758 
	C528.055725,416.938019 529.563965,416.188965 531.069580,415.790161 
	C532.102844,415.729553 533.136169,415.669006 534.785217,416.012390 
	C538.239746,416.027588 541.078491,415.638855 543.917236,415.250122 
	C543.962769,405.918884 544.020447,396.587677 544.050110,387.256409 
	C544.075562,379.238281 542.377991,377.135712 534.460693,375.274536 
	C530.187317,374.269989 530.187317,374.270020 530.693970,369.468475 
	C544.698242,369.468475 558.748779,369.468475 573.093140,369.468475 
	C573.093140,371.128845 573.093140,372.712372 573.093140,374.193481 
	C572.619263,374.465698 572.354248,374.731995 572.059265,374.770844 
	C560.609436,376.279144 559.971924,376.994965 559.971497,388.477356 
	C559.970764,410.308533 559.971619,432.139740 559.975159,453.970917 
	C559.976807,463.855255 561.129333,465.203522 571.009583,466.934662 
	C571.651489,467.047119 572.288208,467.189758 573.107544,467.354614 
	C573.107544,469.017548 573.107544,470.594696 573.107544,472.645416 
	C559.535889,472.645416 546.249023,472.698029 532.964966,472.531067 
	C532.047241,472.519531 530.265869,470.626007 530.429688,470.036560 
	C530.758911,468.851715 531.979126,467.534210 533.151672,467.055511 
	C534.792053,466.385864 536.738159,466.501251 538.530029,466.158661 
	C542.172607,465.462158 543.982910,463.150635 543.996033,459.492950 
	C544.037109,447.994354 544.087708,436.494965 543.948242,424.998138 
	C543.936340,424.021790 542.538452,423.062256 541.069702,421.718567 
	C526.489807,421.240356 512.624695,421.127960 498.759338,421.074646 
	C498.195679,421.072479 497.629852,421.627136 497.065033,421.922363 
M543.726440,420.124847 
	C544.811707,422.694305 546.625793,425.206146 546.834412,427.844910 
	C547.305298,433.801758 547.164124,439.828156 546.938660,445.813690 
	C546.633057,453.924286 548.732910,462.654541 541.534973,470.065125 
	C550.491577,470.065125 559.448181,470.065125 568.931335,470.065125 
	C558.009705,465.556671 557.010803,464.014130 557.015503,452.410004 
	C557.023865,431.763824 557.361755,411.109192 556.850281,390.475677 
	C556.646729,382.267181 556.271912,375.030396 567.024719,372.975311 
	C563.128174,372.329559 559.787415,372.359253 556.447510,372.321106 
	C553.188049,372.283905 549.928467,372.204193 546.670654,372.093597 
	C543.585815,371.988831 540.503113,371.819763 537.419495,371.678986 
	C537.125427,372.339142 536.831299,372.999329 536.537231,373.659485 
	C545.664917,374.128540 546.232666,380.799866 546.799316,386.807526 
	C547.406494,393.244781 547.080933,399.783508 546.940002,406.273102 
	C546.844238,410.681793 548.648438,415.797943 543.096802,418.583008 
	C542.856323,418.703644 542.968811,419.528046 542.676514,420.139984 
	C542.776794,420.120605 542.877075,420.101227 543.726440,420.124847 
z"/>
<path fill="#276BA2" opacity="1.000000" stroke="none" 
	d="
M366.800812,438.374908 
	C366.800812,438.374908 366.735046,438.164917 367.145416,437.929382 
	C367.905579,436.369843 368.255371,435.045837 368.605164,433.721863 
	C368.605164,433.721863 368.668152,433.979126 368.969177,433.781250 
	C370.021759,432.322235 371.197083,431.140717 371.451508,429.786255 
	C372.558167,423.894623 377.977905,419.375244 376.804932,412.796661 
	C376.804932,412.796661 376.839905,412.895935 377.145081,412.785461 
	C378.211853,411.255493 379.079559,409.881897 379.716797,408.408600 
	C382.509583,401.951263 385.235626,395.465027 388.240143,389.155334 
	C389.007141,389.644287 389.826111,390.359253 389.988007,390.232819 
	C394.008392,387.092896 395.294952,390.562195 396.340576,393.139038 
	C399.649200,401.293060 402.814270,409.514069 405.717499,417.820099 
	C407.108185,421.798767 407.950775,425.997406 408.696472,430.158264 
	C408.969025,431.679047 408.242889,433.378815 407.505432,435.001404 
	C398.541962,435.007629 390.043610,434.922363 381.550354,435.091278 
	C380.020599,435.121704 378.511627,436.198608 376.993042,436.792358 
	C376.733551,436.843872 376.474030,436.895447 375.667999,436.948547 
	C374.823303,437.018555 374.527496,437.097015 374.234070,437.185455 
	C372.116577,443.653107 369.785980,450.060852 367.945618,456.606384 
	C366.327515,462.361267 367.689117,464.353302 373.564606,465.869446 
	C376.122955,466.529633 378.762024,466.877075 381.726685,467.434692 
	C381.726685,468.922028 381.726685,470.492126 381.726685,472.395752 
	C368.893677,472.395752 356.152191,472.395752 343.185669,472.395752 
	C343.185669,470.707916 343.185669,469.251343 343.185669,468.738037 
	C347.826599,466.050110 352.009308,463.627563 356.853668,461.057709 
	C358.661560,460.603729 359.807831,460.297028 360.911713,460.340546 
	C357.189758,463.616516 353.510162,466.542267 349.149597,470.009521 
	C354.843323,470.009521 359.500885,470.009521 364.158417,470.009521 
	C368.571320,470.009521 372.984192,470.009521 377.883331,470.009521 
	C377.085480,469.533569 376.729431,469.180389 376.318481,469.096527 
	C364.609161,466.707520 363.145416,464.538971 366.422058,453.381897 
	C367.438171,449.921875 366.633179,448.628510 363.199646,448.729736 
	C364.475464,445.053040 365.638123,441.713989 366.800812,438.374908 
M387.722656,402.256897 
	C384.245972,411.354034 380.769257,420.451141 377.216156,429.748169 
	C387.467834,429.748169 397.139008,429.748169 407.486816,429.748169 
	C402.421967,416.811401 397.574951,404.431000 392.260895,390.857605 
	C390.538818,395.181549 389.273010,398.359741 387.722656,402.256897 
z"/>
<path fill="#326E9D" opacity="1.000000" stroke="none" 
	d="
M387.985901,388.989288 
	C385.235626,395.465027 382.509583,401.951263 379.716797,408.408600 
	C379.079559,409.881897 378.211853,411.255493 377.093842,412.773560 
	C382.100464,398.735748 387.382904,384.567352 392.962738,370.517059 
	C393.469086,369.242065 395.957428,367.950592 397.398010,368.080414 
	C398.786499,368.205566 400.647339,369.912964 401.211456,371.352081 
	C411.885559,398.583771 422.553925,425.820221 432.845673,453.197723 
	C435.806061,461.072845 440.098572,466.580536 449.198303,467.146301 
	C449.198303,469.013306 449.198303,470.586945 449.198303,472.450317 
	C434.881866,472.450317 420.821960,472.450317 406.510925,472.450317 
	C406.510925,470.605988 406.510925,469.038391 406.510925,467.478058 
	C409.718231,466.868561 412.646088,466.344727 415.559418,465.749908 
	C418.849915,465.078064 420.004333,463.184113 418.806671,459.946503 
	C416.329041,453.249054 414.080750,446.455078 411.268585,439.902344 
	C410.666107,438.498474 408.091980,437.185120 406.387756,437.134949 
	C396.904266,436.855957 387.408936,436.979004 377.455353,436.878418 
	C378.511627,436.198608 380.020599,435.121704 381.550354,435.091278 
	C390.043610,434.922363 398.541962,435.007629 407.518677,435.006042 
	C407.998810,435.006165 408.012177,435.027527 408.120850,435.243835 
	C408.436310,435.727234 408.704346,435.898529 409.408875,435.985718 
	C411.192139,437.193878 413.243286,438.115265 413.893738,439.635834 
	C416.354828,445.389130 418.424438,451.314484 420.519287,457.218475 
	C422.342468,462.356873 420.782104,465.658447 415.696381,467.942993 
	C414.631287,468.421448 413.607941,468.992798 412.012512,469.801636 
	C422.812042,469.801636 432.744751,469.801636 442.677429,469.801636 
	C442.714417,469.303711 442.751404,468.805786 442.788391,468.307861 
	C441.808258,467.811188 440.634064,467.513672 439.882996,466.781891 
	C437.220886,464.188324 433.710114,461.877655 432.320801,458.678223 
	C428.457977,449.782562 425.624695,440.446320 422.155426,431.371796 
	C416.458649,416.470886 410.681091,401.598877 404.724762,386.800354 
	C402.678864,381.717224 399.995819,376.890564 397.332123,371.385223 
	C390.680847,376.188812 391.218170,383.590332 387.985901,388.989288 
z"/>
<path fill="#36709E" opacity="1.000000" stroke="none" 
	d="
M494.047363,424.013000 
	C494.486786,423.754761 494.926178,423.496552 495.592834,423.121460 
	C495.884918,433.489716 495.970154,443.974762 496.008484,454.459991 
	C496.041565,463.513458 497.277863,465.069031 506.035980,466.794434 
	C507.002777,466.984894 507.981964,467.112671 509.117859,467.295715 
	C509.117859,468.998230 509.117859,470.578766 509.117859,472.595337 
	C495.062592,472.595337 481.291565,472.602722 467.520752,472.556427 
	C467.144043,472.555176 466.769318,471.976135 466.294434,470.964813 
	C466.153198,469.509521 466.111176,468.755951 466.069153,468.002380 
	C466.535828,467.683411 467.002533,467.364410 468.128174,466.990906 
	C470.331146,466.674286 471.875214,466.412140 473.419250,466.150024 
	C473.419250,466.150024 473.733765,466.263458 474.248230,466.187988 
	C478.739990,465.305786 480.090118,462.572357 480.091064,458.848450 
	C480.097443,433.952332 480.121613,409.056213 480.092407,384.160156 
	C480.087799,380.249329 478.403534,377.463287 474.264282,376.684418 
	C474.264282,376.684418 474.206390,376.695221 473.960571,376.458038 
	C471.804352,375.857880 469.893921,375.494934 467.983521,375.131958 
	C467.515106,374.872620 467.046692,374.613281 466.414551,373.794647 
	C466.205841,372.155457 466.160797,371.075531 466.115784,369.995636 
	C467.501648,369.676666 468.887543,369.357666 471.048035,369.056702 
	C473.213104,369.012604 474.603546,368.950439 475.994019,368.888306 
	C477.386871,368.934204 478.779755,368.980103 481.044189,369.047119 
	C486.941620,369.006866 491.967468,368.945496 496.993317,368.884125 
	C500.939331,368.884125 504.885345,368.884125 509.130188,368.884125 
	C509.130188,371.072754 509.130188,372.651306 509.130188,374.311707 
	C504.661804,376.072998 498.684082,374.493378 496.126465,380.648010 
	C495.916229,380.917603 495.838257,380.841400 495.886963,380.490143 
	C495.955505,379.425934 495.975311,378.713013 496.048523,377.636505 
	C498.277618,375.878540 500.453308,374.484131 502.628998,373.089722 
	C502.573212,372.694305 502.517456,372.298889 502.461670,371.903473 
	C492.279602,371.903473 482.097565,371.903473 471.915497,371.903473 
	C471.665375,372.274811 471.415222,372.646149 471.165100,373.017487 
	C482.867401,374.795868 482.441376,383.749237 482.866089,391.787048 
	C483.309570,400.180023 482.972229,408.614288 482.973114,417.030518 
	C482.974335,428.359344 483.305847,439.701904 482.838867,451.011475 
	C482.585144,457.156860 483.417023,464.013580 477.467010,468.593353 
	C477.359375,468.676147 477.576996,469.181641 477.806000,470.253815 
	C486.866516,470.253815 496.080963,470.253815 506.751465,470.253815 
	C504.747650,469.064148 504.111359,468.489258 503.371124,468.276978 
	C494.540833,465.744629 494.005920,465.082855 493.995667,455.971741 
	C493.984009,445.642548 494.001038,435.313324 494.007690,424.748718 
	C494.009735,424.513275 494.014435,424.042419 494.015320,424.029358 
	C494.016174,424.016266 494.047394,424.013000 494.047363,424.013000 
M474.015839,470.778351 
	C473.187897,470.177948 472.359924,469.577576 471.531952,468.977173 
	C471.270386,469.400024 471.008820,469.822906 470.747253,470.245758 
	C471.615021,470.479919 472.482788,470.714050 474.015839,470.778351 
z"/>
<path fill="#DBF5FA" opacity="1.000000" stroke="none" 
	d="
M690.092102,386.895111 
	C696.446289,391.573517 697.782715,398.912872 699.911743,405.755615 
	C704.434814,420.293335 701.814697,434.437866 695.787964,447.764526 
	C692.637024,454.731995 688.246582,461.189423 681.797729,466.345398 
	C669.404419,476.254089 655.545349,478.114105 640.662415,476.065674 
	C622.510254,473.567261 610.434021,463.516144 602.870239,446.722198 
	C595.896729,431.238922 596.651489,415.564087 600.441589,400.083954 
	C603.330566,388.284576 611.579651,379.142975 621.723083,372.372650 
	C624.715454,370.375305 628.868469,370.116608 632.749634,369.344055 
	C632.560242,369.909332 632.110779,370.191681 631.674316,370.489471 
	C631.687256,370.504944 631.661377,370.528290 631.337280,370.540344 
	C630.282898,370.972351 629.552673,371.392242 628.869873,371.829468 
	C628.917297,371.846802 628.898621,371.747589 628.569580,371.765503 
	C627.708557,372.137390 627.176636,372.491364 626.389893,372.864441 
	C625.738098,373.167511 625.341125,373.451508 624.602234,373.823944 
	C621.137207,376.374084 617.672913,378.508820 614.948120,381.352203 
	C600.856995,396.056519 597.750916,413.911865 601.034241,433.248993 
	C605.085510,457.108337 624.041443,474.073486 647.168945,474.980316 
	C670.974243,475.913696 691.017273,460.935028 697.041199,437.234924 
	C701.506348,419.667603 699.131653,402.921234 689.737549,387.226807 
	C689.857605,387.118195 690.092102,386.895111 690.092102,386.895111 
z"/>
<path fill="#E6FBFD" opacity="1.000000" stroke="none" 
	d="
M474.210999,377.084717 
	C478.403534,377.463287 480.087799,380.249329 480.092407,384.160156 
	C480.121613,409.056213 480.097443,433.952332 480.091064,458.848450 
	C480.090118,462.572357 478.739990,465.305786 474.382385,466.088318 
	C474.624268,464.360718 475.037018,462.540802 475.907959,460.975922 
	C478.500885,456.316986 477.197266,451.498535 477.121674,446.606781 
	C476.831207,427.817810 476.591553,409.006409 477.282104,390.238312 
	C477.465240,385.260223 474.586426,381.848969 474.210999,377.084717 
z"/>
<path fill="#DBF5FA" opacity="1.000000" stroke="none" 
	d="
M423.186981,193.653717 
	C414.560486,180.467697 405.923584,167.288467 397.322968,154.085587 
	C396.421722,152.702087 395.734894,151.178925 394.979767,149.361725 
	C397.240540,148.263428 398.355133,148.669983 399.317383,151.271118 
	C401.926300,158.323349 405.765228,164.596191 411.479309,169.831116 
	C413.921997,172.069031 414.640778,176.088135 416.559937,179.025406 
	C418.614899,182.170563 421.160828,184.994934 424.084930,188.712601 
	C427.276184,184.024673 430.716278,180.177765 432.768158,175.695404 
	C436.551453,167.430725 442.762970,161.060364 448.527069,153.975464 
	C448.942474,153.946091 449.112732,154.091705 449.041962,154.431976 
	C440.574921,167.740082 432.178680,180.707901 423.763062,193.702713 
	C423.743744,193.729691 423.682709,193.755676 423.588013,193.721436 
	C423.493286,193.687195 423.305389,193.759689 423.283142,193.724976 
	C423.260895,193.690247 423.186981,193.653717 423.186981,193.653717 
z"/>
<path fill="#DBF5FA" opacity="1.000000" stroke="none" 
	d="
M391.720825,135.961792 
	C384.879578,136.177094 377.904022,135.932617 370.927673,135.907501 
	C354.950317,135.849991 338.972565,135.899643 322.536682,135.961578 
	C322.976501,134.826523 323.854370,132.614349 324.775787,132.596054 
	C342.148560,132.250809 359.530975,131.899506 376.900421,132.194748 
	C381.813538,132.278275 386.691833,134.409531 391.720825,135.961792 
z"/>
<path fill="#DBF5FA" opacity="1.000000" stroke="none" 
	d="
M634.966553,368.798584 
	C635.265869,364.990112 638.059937,364.536102 640.969788,364.533173 
	C643.602844,364.530518 646.369507,365.454590 648.846436,364.913361 
	C659.851624,362.508728 668.968689,368.474091 678.203308,372.194672 
	C682.813110,374.051941 685.508728,380.660004 689.025635,385.570557 
	C688.981079,386.021942 688.811096,386.179230 688.530273,385.999237 
	C682.900330,379.042511 676.602600,373.516663 667.993164,370.433350 
	C656.956726,366.005249 646.020569,366.022003 634.966553,368.798584 
z"/>
<path fill="#3E72A0" opacity="1.000000" stroke="none" 
	d="
M683.801025,279.290466 
	C684.109436,277.997650 684.523560,276.457153 685.387634,275.234802 
	C690.088867,268.584320 695.290100,262.247955 699.495728,255.304749 
	C701.344604,252.252472 701.155640,247.997101 702.080444,244.335587 
	C702.372498,243.179169 703.276367,242.177292 704.245239,241.027313 
	C702.796753,256.390778 696.017090,269.161774 683.801025,279.290466 
z"/>
<path fill="#395C85" opacity="1.000000" stroke="none" 
	d="
M513.413086,140.091064 
	C511.744171,139.114334 510.521332,137.370178 509.063141,137.144135 
	C506.065735,136.679520 502.942413,137.027206 499.091583,137.053955 
	C497.893127,137.072403 497.474030,137.077484 496.581696,137.052368 
	C485.719208,137.044571 475.329895,137.066986 464.551880,137.080383 
	C463.126434,137.074371 462.089661,137.077362 460.664032,137.051910 
	C458.148438,137.704681 456.021729,138.385895 453.573578,138.982162 
	C452.250519,138.435181 451.248932,137.973145 450.247314,137.511093 
	C449.847656,137.227219 449.447998,136.943344 448.523651,136.286804 
	C472.333588,136.286804 495.618927,136.286804 519.795410,136.286804 
	C517.300476,137.824387 515.526611,138.917633 513.413086,140.091064 
z"/>
<path fill="#36709E" opacity="1.000000" stroke="none" 
	d="
M495.904236,412.505524 
	C495.387207,411.776672 494.957153,410.588898 494.263855,408.741821 
	C493.696167,399.063629 493.391693,390.044769 493.432312,381.019348 
	C494.464386,380.955688 495.151306,380.898560 495.838257,380.841400 
	C495.838257,380.841400 495.916229,380.917603 495.955200,380.955688 
	C495.993225,391.344727 495.992249,401.695648 495.904236,412.505524 
z"/>
<path fill="#2C6999" opacity="1.000000" stroke="none" 
	d="
M634.705200,368.911499 
	C646.020569,366.022003 656.956726,366.005249 667.910828,370.535461 
	C668.108337,370.874420 667.943237,371.077850 667.618774,371.058044 
	C666.859985,371.037964 666.425537,371.037720 665.565796,371.025482 
	C662.890442,370.586853 660.656616,369.953766 658.387207,369.775635 
	C653.365112,369.381409 648.320068,368.948425 643.294067,369.043274 
	C639.408875,369.116669 635.538391,369.968384 631.661377,370.473999 
	C632.110779,370.191681 632.560242,369.909332 633.165649,369.405914 
	C633.695679,369.131348 634.069702,369.077881 634.705200,368.911499 
z"/>
<path fill="#36709E" opacity="1.000000" stroke="none" 
	d="
M530.690857,415.635864 
	C529.563965,416.188965 528.055725,416.938019 526.553162,416.926758 
	C519.516907,416.874115 512.482117,416.612061 505.176575,416.087067 
	C513.374939,415.660065 521.843506,415.570801 530.690857,415.635864 
z"/>
<path fill="#DBF5FA" opacity="1.000000" stroke="none" 
	d="
M450.182800,137.928162 
	C451.248932,137.973145 452.250519,138.435181 453.732788,139.326050 
	C456.489563,145.948502 451.366577,149.509720 449.112732,154.091705 
	C449.112732,154.091705 448.942474,153.946091 448.854187,153.873962 
	C450.078888,148.725067 452.382263,143.734955 450.182800,137.928162 
z"/>
<path fill="#395C85" opacity="1.000000" stroke="none" 
	d="
M497.521362,421.996582 
	C497.629852,421.627136 498.195679,421.072479 498.759338,421.074646 
	C512.624695,421.127960 526.489807,421.240356 540.643677,421.634644 
	C526.614136,421.975006 512.295959,422.022888 497.521362,421.996582 
z"/>
<path fill="#326E9D" opacity="1.000000" stroke="none" 
	d="
M360.954102,459.990356 
	C359.807831,460.297028 358.661560,460.603729 357.156799,460.909363 
	C359.943573,453.562592 363.088867,446.216858 366.517487,438.623047 
	C365.638123,441.713989 364.475464,445.053040 363.171936,449.109100 
	C362.682617,451.550171 362.334167,453.274292 361.710022,455.247070 
	C361.286713,456.982300 361.139099,458.468781 360.987915,459.968933 
	C360.984375,459.982544 360.954102,459.990387 360.954102,459.990356 
z"/>
<path fill="#326E9D" opacity="1.000000" stroke="none" 
	d="
M376.534851,413.021484 
	C377.977905,419.375244 372.558167,423.894623 371.451508,429.786255 
	C371.197083,431.140717 370.021759,432.322235 368.912598,433.661499 
	C371.124908,426.908539 373.694855,420.077393 376.534851,413.021484 
z"/>
<path fill="#E6FBFD" opacity="1.000000" stroke="none" 
	d="
M496.706482,368.618378 
	C491.967468,368.945496 486.941620,369.006866 481.456848,368.971466 
	C483.889618,368.288574 486.763977,367.378113 489.678741,367.221771 
	C491.899109,367.102661 494.170776,367.940521 496.706482,368.618378 
z"/>
<path fill="#36709E" opacity="1.000000" stroke="none" 
	d="
M543.494507,415.262604 
	C541.078491,415.638855 538.239746,416.027588 535.164307,416.105957 
	C537.642334,415.622070 540.357056,415.448578 543.494507,415.262604 
z"/>
<path fill="#E6FBFD" opacity="1.000000" stroke="none" 
	d="
M468.079132,375.502472 
	C469.893921,375.494934 471.804352,375.857880 473.959473,376.487488 
	C472.194397,376.460388 470.184570,376.166687 468.079132,375.502472 
z"/>
<path fill="#E6FBFD" opacity="1.000000" stroke="none" 
	d="
M473.035248,466.093506 
	C471.875214,466.412140 470.331146,466.674286 468.392395,466.882996 
	C469.548859,466.565399 471.100037,466.301178 473.035248,466.093506 
z"/>
<path fill="#326E9D" opacity="1.000000" stroke="none" 
	d="
M368.360687,433.950623 
	C368.255371,435.045837 367.905579,436.369843 367.223206,437.851562 
	C367.299164,436.732666 367.707703,435.455994 368.360687,433.950623 
z"/>
<path fill="#E6FBFD" opacity="1.000000" stroke="none" 
	d="
M475.752838,368.640442 
	C474.603546,368.950439 473.213104,369.012604 471.413940,368.979218 
	C472.507385,368.719971 474.009521,368.556274 475.752838,368.640442 
z"/>
<path fill="#E6FBFD" opacity="1.000000" stroke="none" 
	d="
M465.757690,468.030640 
	C466.111176,468.755951 466.153198,469.509521 466.101013,470.631134 
	C465.819946,470.019073 465.633118,469.038971 465.757690,468.030640 
z"/>
<path fill="#36709E" opacity="1.000000" stroke="none" 
	d="
M497.863373,415.557861 
	C497.422913,415.698669 496.747711,415.690613 496.031769,415.382294 
	C496.536896,415.191010 497.082764,415.300018 497.863373,415.557861 
z"/>
<path fill="#E6FBFD" opacity="1.000000" stroke="none" 
	d="
M465.826904,370.191956 
	C466.160797,371.075531 466.205841,372.155457 466.194824,373.639648 
	C465.938538,372.825378 465.738312,371.606812 465.826904,370.191956 
z"/>
<path fill="#326E9D" opacity="1.000000" stroke="none" 
	d="
M374.396240,437.186676 
	C374.527496,437.097015 374.823303,437.018555 375.272827,436.911957 
	C375.208466,437.137451 374.919891,437.242126 374.396240,437.186676 
z"/>
<path fill="#DBF5FA" opacity="1.000000" stroke="none" 
	d="
M689.067383,385.944763 
	C689.427063,386.030243 689.660400,386.237854 689.972900,386.692749 
	C690.092102,386.895111 689.857605,387.118195 689.538696,387.085327 
	C688.988586,386.805786 688.852356,386.514709 688.811096,386.179230 
	C688.811096,386.179230 688.981079,386.021942 689.067383,385.944763 
z"/>
<path fill="#0C64B4" opacity="1.000000" stroke="none" 
	d="
M204.814392,293.011108 
	C190.390488,292.691254 176.442078,292.370819 163.338959,292.069824 
	C163.946899,286.474854 164.879959,281.651855 164.931717,276.819427 
	C165.368515,236.034409 165.693359,195.247894 165.910858,154.461090 
	C165.940536,148.897522 165.192642,143.329803 164.819702,137.978546 
	C198.395401,137.978546 231.282303,137.571655 264.148102,138.225906 
	C274.037048,138.422760 284.492188,140.040436 293.570099,143.745834 
	C305.582611,148.649033 314.391296,157.826935 313.946808,172.376572 
	C313.782013,177.769745 313.872986,183.639816 311.784454,188.384338 
	C309.270905,194.094299 306.085663,199.994949 299.496887,202.936096 
	C296.742096,204.165802 294.745514,207.094040 291.705292,209.893616 
	C294.597412,211.867325 296.887878,214.272202 299.665863,215.171982 
	C308.832123,218.140945 314.216492,224.642120 316.501343,233.411728 
	C318.149353,239.736862 319.373199,246.572479 318.785126,252.997253 
	C317.546997,266.524170 312.123352,277.414581 298.682007,284.054871 
	C287.692505,289.483917 276.554840,290.776611 264.792511,291.106750 
	C253.033600,291.436768 241.297455,292.523468 229.539490,292.959381 
	C221.466751,293.258698 213.373810,293.012756 204.814392,293.011108 
M217.717468,222.006516 
	C212.701736,223.027023 210.733459,225.987579 210.929291,231.174179 
	C211.236298,239.305740 211.199768,247.467422 210.876160,255.599152 
	C210.683640,260.436981 213.270416,262.244476 217.120377,264.155029 
	C222.518967,266.834106 227.862457,264.976318 233.146744,264.848877 
	C241.528717,264.646729 249.893692,263.564178 258.250610,262.705597 
	C259.393341,262.588196 260.750275,261.873962 261.495026,260.999268 
	C266.388916,255.251541 268.945862,248.703857 267.963409,240.999222 
	C266.835480,232.153351 261.251953,225.088867 254.243759,224.089218 
	C246.474976,222.981094 238.701111,221.792923 230.887238,221.164185 
	C226.825623,220.837326 222.672989,221.641235 217.717468,222.006516 
M250.942947,200.509018 
	C254.437836,198.596710 260.057220,200.190369 261.568695,195.315781 
	C263.264282,189.847412 264.754730,184.046631 264.762909,178.388199 
	C264.774567,170.332169 260.879822,165.534454 252.888916,164.690857 
	C240.736923,163.407990 228.440109,163.428970 216.199326,163.099777 
	C212.826431,163.009064 211.073120,165.243576 211.052551,168.585739 
	C210.998276,177.410049 210.890396,186.237350 211.061493,195.058472 
	C211.171036,200.706894 215.114182,203.688309 220.724564,202.871902 
	C222.157227,202.663422 223.613266,202.606903 225.060471,202.508575 
	C233.431458,201.939774 241.803040,201.379379 250.942947,200.509018 
z"/>
<path fill="#F9FEFD" opacity="1.000000" stroke="none" 
	d="
M257.816376,414.000000 
	C257.816315,401.052948 257.816315,388.605896 257.816315,376.287231 
	C285.679932,370.965637 306.734009,386.934998 308.833099,414.699310 
	C309.690826,426.044098 309.170746,437.317627 304.185394,447.942963 
	C296.724304,463.844696 281.077881,468.348999 265.602112,465.528137 
	C260.061523,464.518250 257.882904,461.181671 257.847168,454.979828 
	C257.769440,441.486938 257.818939,427.993317 257.816376,414.000000 
z"/>
<path fill="#0D65B3" opacity="1.000000" stroke="none" 
	d="
M244.968765,449.953613 
	C244.967590,429.978088 244.967194,410.494904 244.967133,391.011749 
	C244.967133,390.012634 244.701538,388.919373 245.013657,388.029175 
	C247.672211,380.446899 243.002533,377.166260 237.232773,374.449371 
	C236.848724,374.268494 236.645828,373.702942 235.837341,372.614502 
	C243.703003,372.614502 251.000214,372.614502 258.545532,372.614502 
	C255.060669,379.477295 255.025177,386.963776 255.021912,394.452240 
	C255.014771,410.771454 254.933899,427.091370 255.062668,443.409546 
	C255.105713,448.865021 255.688782,454.316559 256.035339,459.769226 
	C256.325806,464.338837 262.240906,467.897614 267.673431,468.923004 
	C269.183777,469.208099 270.793549,468.966431 272.357727,468.966431 
	C272.416962,469.375183 272.476227,469.783936 272.535492,470.192688 
	C271.906342,470.450134 271.269867,470.947784 270.649170,470.928833 
	C262.029999,470.665161 253.414032,470.295807 244.794769,470.035736 
	C242.356567,469.962189 239.503021,469.294189 241.521332,466.581482 
	C245.279221,461.530731 244.914612,456.043488 244.968765,449.953613 
z"/>
<path fill="#0D65B3" opacity="1.000000" stroke="none" 
	d="
M313.059204,384.915314 
	C314.945251,388.761475 316.788788,392.666351 318.625916,396.574280 
	C319.851074,399.180420 321.328125,401.703064 322.240906,404.415009 
	C325.715820,414.739502 325.802643,425.345215 322.810242,435.646851 
	C321.372223,440.597321 317.353851,444.738861 315.305634,449.585510 
	C312.251373,456.812775 305.002350,459.009796 299.794037,463.620239 
	C298.833038,464.470917 297.304840,464.680817 296.038452,465.186462 
	C295.758911,464.812317 295.479340,464.438141 295.199799,464.063965 
	C297.180511,461.821350 298.983704,459.385162 301.176666,457.374023 
	C306.781860,452.233673 308.569366,445.404236 309.941315,438.382935 
	C310.604645,434.988129 311.556488,431.492126 311.332153,428.111328 
	C310.691650,418.458252 311.836761,407.775299 308.017700,399.453247 
	C301.949036,386.229126 293.126007,373.700623 274.927307,373.856598 
	C279.055695,370.986023 283.260834,371.151459 289.150513,373.715973 
	C296.023102,376.708435 303.495087,378.487030 309.129211,383.956909 
	C309.855469,384.661987 311.278992,384.648895 312.760010,384.931458 
	C313.140472,384.894470 313.013977,384.975342 313.059204,384.915314 
z"/>
<path fill="#0D65B3" opacity="1.000000" stroke="none" 
	d="
M232.789093,470.569824 
	C233.705887,469.829254 234.890244,469.321930 236.074600,468.814575 
	C236.224396,469.357208 236.374176,469.899841 236.523972,470.442474 
	C235.368195,470.562683 234.212433,470.682861 232.789093,470.569824 
z"/>
<path fill="#0C64B4" opacity="1.000000" stroke="none" 
	d="
M497.054901,137.082550 
	C497.474030,137.077484 497.893127,137.072403 498.625519,137.080261 
	C500.436676,137.728180 501.884735,138.661530 503.445129,138.921936 
	C505.359100,139.241364 507.366943,138.998093 509.867584,138.998093 
	C509.320160,140.613144 509.179169,141.786636 508.589478,142.655655 
	C499.233032,156.444275 489.788361,170.173019 480.430145,183.960434 
	C475.048431,191.889297 469.826569,199.926620 464.456238,207.863312 
	C459.784119,214.768158 454.872620,221.515503 450.368896,228.526443 
	C449.297119,230.194885 449.080566,232.634720 449.065369,234.724091 
	C448.959930,249.222015 448.855133,263.723907 449.113861,278.217987 
	C449.185883,282.251160 450.483368,286.262451 451.282104,290.630859 
	C432.221802,290.630859 413.008911,290.630859 394.033752,290.630859 
	C399.926025,272.230103 396.584991,253.265060 396.503601,234.620346 
	C396.475708,228.224197 391.497986,221.499420 387.782562,215.548553 
	C381.631287,205.696335 374.568756,196.417816 368.089722,186.763672 
	C364.396057,181.259827 361.325989,175.333313 357.565887,169.879257 
	C352.396271,162.380737 346.838440,155.149918 341.448364,147.803329 
	C339.305847,144.883118 337.167267,141.960007 334.278717,138.016846 
	C352.855255,138.016846 369.815735,137.971130 386.774384,138.126450 
	C387.831238,138.136124 389.910889,140.021820 389.764343,140.529999 
	C388.065033,146.423264 392.285492,150.392151 394.625092,154.613159 
	C400.106384,164.502228 406.365997,173.964798 412.439819,183.517807 
	C414.524170,186.796051 416.899231,189.906387 419.356964,192.917542 
	C419.917419,193.604172 421.370361,193.562286 422.799744,193.754700 
	C423.186981,193.653717 423.260895,193.690247 423.202820,194.039886 
	C423.194550,194.942200 423.244293,195.494873 423.294067,196.047531 
	C423.493439,196.029770 423.692780,196.012024 423.892120,195.994263 
	C423.822327,195.248062 423.752502,194.501877 423.682709,193.755676 
	C423.682709,193.755676 423.743744,193.729691 424.143890,193.772186 
	C425.904419,193.271744 428.278687,192.962006 428.465637,192.149170 
	C430.039703,185.305328 438.477142,183.004898 439.144897,175.505325 
	C439.331238,173.412613 441.259033,171.440353 442.497345,169.482010 
	C447.243866,161.975357 454.005280,155.763687 456.377563,146.707520 
	C457.264252,143.322510 459.456146,140.279373 461.052917,137.080353 
	C462.089661,137.077362 463.126434,137.074371 464.668762,137.462738 
	C465.693573,138.207504 466.210114,138.864594 466.732391,138.869156 
	C476.015930,138.950500 485.300720,139.000626 494.583252,138.889297 
	C495.414215,138.879333 496.231354,137.712250 497.054901,137.082550 
z"/>
<path fill="#0D65B3" opacity="1.000000" stroke="none" 
	d="
M493.087158,381.025879 
	C493.391693,390.044769 493.696167,399.063629 494.011536,408.535339 
	C494.008118,410.448090 494.000031,411.908142 493.978241,413.367950 
	C493.928284,416.715027 493.871704,420.061981 493.932617,423.710999 
	C494.047394,424.013000 494.016174,424.016266 493.767517,424.032745 
	C493.256287,424.200439 492.993683,424.351624 492.731110,424.502838 
	C493.155945,424.663269 493.580780,424.823700 494.005615,424.984131 
	C494.001038,435.313324 493.984009,445.642548 493.995667,455.971741 
	C494.005920,465.082855 494.540833,465.744629 503.371124,468.276978 
	C504.111359,468.489258 504.747650,469.064148 506.751465,470.253815 
	C496.080963,470.253815 486.866516,470.253815 477.806000,470.253815 
	C477.576996,469.181641 477.359375,468.676147 477.467010,468.593353 
	C483.417023,464.013580 482.585144,457.156860 482.838867,451.011475 
	C483.305847,439.701904 482.974335,428.359344 482.973114,417.030518 
	C482.972229,408.614288 483.309570,400.180023 482.866089,391.787048 
	C482.441376,383.749237 482.867401,374.795868 471.165100,373.017487 
	C471.415222,372.646149 471.665375,372.274811 471.915497,371.903473 
	C482.097565,371.903473 492.279602,371.903473 502.461670,371.903473 
	C502.517456,372.298889 502.573212,372.694305 502.628998,373.089722 
	C500.453308,374.484131 498.277618,375.878540 495.709473,377.673340 
	C494.573761,379.057770 493.830475,380.041809 493.087158,381.025879 
z"/>
<path fill="#0C64B4" opacity="1.000000" stroke="none" 
	d="
M542.916931,420.024658 
	C542.968811,419.528046 542.856323,418.703644 543.096802,418.583008 
	C548.648438,415.797943 546.844238,410.681793 546.940002,406.273102 
	C547.080933,399.783508 547.406494,393.244781 546.799316,386.807526 
	C546.232666,380.799866 545.664917,374.128540 536.537231,373.659485 
	C536.831299,372.999329 537.125427,372.339142 537.419495,371.678986 
	C540.503113,371.819763 543.585815,371.988831 546.670654,372.093597 
	C549.928467,372.204193 553.188049,372.283905 556.447510,372.321106 
	C559.787415,372.359253 563.128174,372.329559 567.024719,372.975311 
	C556.271912,375.030396 556.646729,382.267181 556.850281,390.475677 
	C557.361755,411.109192 557.023865,431.763824 557.015503,452.410004 
	C557.010803,464.014130 558.009705,465.556671 568.931335,470.065125 
	C559.448181,470.065125 550.491577,470.065125 541.534973,470.065125 
	C548.732910,462.654541 546.633057,453.924286 546.938660,445.813690 
	C547.164124,439.828156 547.305298,433.801758 546.834412,427.844910 
	C546.625793,425.206146 544.811707,422.694305 543.352295,420.072662 
	C542.978210,420.020477 542.916931,420.024658 542.916931,420.024658 
z"/>
<path fill="#36709E" opacity="1.000000" stroke="none" 
	d="
M542.977783,420.051178 
	C542.877075,420.101227 542.776794,420.120605 542.796753,420.082336 
	C542.916931,420.024658 542.978210,420.020477 542.977783,420.051178 
z"/>
<path fill="#0D65B3" opacity="1.000000" stroke="none" 
	d="
M388.240112,389.155334 
	C391.218170,383.590332 390.680847,376.188812 397.332123,371.385223 
	C399.995819,376.890564 402.678864,381.717224 404.724762,386.800354 
	C410.681091,401.598877 416.458649,416.470886 422.155426,431.371796 
	C425.624695,440.446320 428.457977,449.782562 432.320801,458.678223 
	C433.710114,461.877655 437.220886,464.188324 439.882996,466.781891 
	C440.634064,467.513672 441.808258,467.811188 442.788391,468.307861 
	C442.751404,468.805786 442.714417,469.303711 442.677429,469.801636 
	C432.744751,469.801636 422.812042,469.801636 412.012512,469.801636 
	C413.607941,468.992798 414.631287,468.421448 415.696381,467.942993 
	C420.782104,465.658447 422.342468,462.356873 420.519287,457.218475 
	C418.424438,451.314484 416.354828,445.389130 413.893738,439.635834 
	C413.243286,438.115265 411.192139,437.193878 409.291565,435.775543 
	C408.598694,435.285706 408.336395,435.110321 408.012177,435.027527 
	C408.012177,435.027527 407.998810,435.006165 407.985596,435.001556 
	C408.242889,433.378815 408.969025,431.679047 408.696472,430.158264 
	C407.950775,425.997406 407.108185,421.798767 405.717499,417.820099 
	C402.814270,409.514069 399.649200,401.293060 396.340576,393.139038 
	C395.294952,390.562195 394.008392,387.092896 389.988007,390.232819 
	C389.826111,390.359253 389.007141,389.644287 388.240112,389.155334 
z"/>
<path fill="#EFFBFC" opacity="1.000000" stroke="none" 
	d="
M387.864929,401.897430 
	C389.273010,398.359741 390.538818,395.181549 392.260895,390.857605 
	C397.574951,404.431000 402.421967,416.811401 407.486816,429.748169 
	C397.139008,429.748169 387.467834,429.748169 377.216156,429.748169 
	C380.769257,420.451141 384.245972,411.354034 387.864929,401.897430 
z"/>
<path fill="#0F65B2" opacity="1.000000" stroke="none" 
	d="
M361.985718,454.998383 
	C362.334167,453.274292 362.682617,451.550171 363.058777,449.446716 
	C366.633179,448.628510 367.438171,449.921875 366.422058,453.381897 
	C363.145416,464.538971 364.609161,466.707520 376.318481,469.096527 
	C376.729431,469.180389 377.085480,469.533569 377.883331,470.009521 
	C372.984192,470.009521 368.571320,470.009521 364.158417,470.009521 
	C359.500885,470.009521 354.843323,470.009521 349.149597,470.009521 
	C353.510162,466.542267 357.189758,463.616516 360.911713,460.340576 
	C360.954102,459.990387 360.984375,459.982544 361.343048,459.918732 
	C361.796387,458.236084 361.891052,456.617218 361.985718,454.998383 
z"/>
<path fill="#276BA2" opacity="1.000000" stroke="none" 
	d="
M408.120850,435.243835 
	C408.336395,435.110321 408.598694,435.285706 408.916321,435.763916 
	C408.704346,435.898529 408.436310,435.727234 408.120850,435.243835 
z"/>
<path fill="#0D65B3" opacity="1.000000" stroke="none" 
	d="
M473.683197,470.863281 
	C472.482788,470.714050 471.615021,470.479919 470.747253,470.245758 
	C471.008820,469.822906 471.270386,469.400024 471.531952,468.977173 
	C472.359924,469.577576 473.187897,470.177948 473.683197,470.863281 
z"/>
<path fill="#2D6CA1" opacity="1.000000" stroke="none" 
	d="
M493.432312,381.019348 
	C493.830475,380.041809 494.573761,379.057770 495.656067,378.036896 
	C495.975311,378.713013 495.955505,379.425934 495.886963,380.490143 
	C495.151306,380.898560 494.464386,380.955688 493.432312,381.019348 
z"/>
<path fill="#2D6CA1" opacity="1.000000" stroke="none" 
	d="
M494.007690,424.748718 
	C493.580780,424.823700 493.155945,424.663269 492.731110,424.502838 
	C492.993683,424.351624 493.256287,424.200439 493.766663,424.045837 
	C494.014435,424.042419 494.009735,424.513275 494.007690,424.748718 
z"/>
<path fill="#2C6999" opacity="1.000000" stroke="none" 
	d="
M688.530273,385.999237 
	C688.852356,386.514709 688.988586,386.805786 689.418640,387.193939 
	C699.131653,402.921234 701.506348,419.667603 697.041199,437.234924 
	C691.017273,460.935028 670.974243,475.913696 647.168945,474.980316 
	C624.041443,474.073486 605.085510,457.108337 601.034241,433.248993 
	C597.750916,413.911865 600.856995,396.056519 614.948120,381.352203 
	C617.672913,378.508820 621.137207,376.374084 624.603638,374.192444 
	C624.609802,375.635742 624.272583,376.798981 623.574402,377.968994 
	C615.045227,381.380188 611.201355,389.165527 607.496826,395.977142 
	C601.184937,407.583099 601.465271,420.660980 603.707642,433.577820 
	C605.627502,444.636810 611.355652,453.307800 619.338562,461.056488 
	C626.317322,467.830444 634.567932,471.981018 643.784241,472.773834 
	C659.049622,474.087128 672.873718,470.238495 682.563721,457.013916 
	C683.244934,456.084259 684.049377,455.098145 685.028076,454.557068 
	C691.737183,450.847748 692.861694,443.430237 694.540283,437.461700 
	C697.374023,427.386108 698.192688,416.816925 695.043884,406.126648 
	C691.853943,395.296906 687.047668,385.992371 677.832520,379.194000 
	C674.405396,376.665710 671.232239,373.793304 667.943237,371.077850 
	C667.943237,371.077850 668.108337,370.874420 668.190674,370.772308 
	C676.602600,373.516663 682.900330,379.042511 688.530273,385.999237 
z"/>
<path fill="#0F65B2" opacity="1.000000" stroke="none" 
	d="
M623.935364,377.962219 
	C624.272583,376.798981 624.609802,375.635742 624.945557,374.104004 
	C625.341125,373.451508 625.738098,373.167511 626.742798,372.897888 
	C627.866577,372.524017 628.382629,372.135834 628.898621,371.747620 
	C628.898621,371.747589 628.917297,371.846802 629.241943,371.897888 
	C630.264832,371.475403 630.963074,371.001831 631.661377,370.528290 
	C631.661377,370.528290 631.687256,370.504944 631.674316,370.489502 
	C635.538391,369.968384 639.408875,369.116669 643.294067,369.043274 
	C648.320068,368.948425 653.365112,369.381409 658.387207,369.775635 
	C660.656616,369.953766 662.890442,370.586853 665.437134,371.322784 
	C665.822815,373.084045 665.911743,374.536011 665.665649,375.830933 
	C653.010498,368.472351 637.343872,370.252563 626.869507,379.732880 
	C625.795410,378.946014 624.865417,378.454102 623.935364,377.962219 
z"/>
<path fill="#2C6999" opacity="1.000000" stroke="none" 
	d="
M631.337280,370.540344 
	C630.963074,371.001831 630.264832,371.475403 629.194519,371.880554 
	C629.552673,371.392242 630.282898,370.972351 631.337280,370.540344 
z"/>
<path fill="#2C6999" opacity="1.000000" stroke="none" 
	d="
M628.569580,371.765503 
	C628.382629,372.135834 627.866577,372.524017 626.997620,372.878784 
	C627.176636,372.491364 627.708557,372.137390 628.569580,371.765503 
z"/>
<path fill="#2A689A" opacity="1.000000" stroke="none" 
	d="
M460.664032,137.051910 
	C459.456146,140.279373 457.264252,143.322510 456.377563,146.707520 
	C454.005280,155.763687 447.243866,161.975357 442.497345,169.482010 
	C441.259033,171.440353 439.331238,173.412613 439.144897,175.505325 
	C438.477142,183.004898 430.039703,185.305328 428.465637,192.149170 
	C428.278687,192.962006 425.904419,193.271744 424.163208,193.745209 
	C432.178680,180.707901 440.574921,167.740082 449.041962,154.431976 
	C451.366577,149.509720 456.489563,145.948502 454.054230,139.410980 
	C456.021729,138.385895 458.148438,137.704681 460.664032,137.051910 
z"/>
<path fill="#2A689A" opacity="1.000000" stroke="none" 
	d="
M423.588013,193.721436 
	C423.752502,194.501877 423.822327,195.248062 423.892120,195.994263 
	C423.692780,196.012024 423.493439,196.029770 423.294067,196.047531 
	C423.244293,195.494873 423.194550,194.942200 423.225098,194.074615 
	C423.305389,193.759689 423.493286,193.687195 423.588013,193.721436 
z"/>
<path fill="#2A689A" opacity="1.000000" stroke="none" 
	d="
M496.581696,137.052353 
	C496.231354,137.712250 495.414215,138.879333 494.583252,138.889297 
	C485.300720,139.000626 476.015930,138.950500 466.732391,138.869156 
	C466.210114,138.864594 465.693573,138.207504 465.057495,137.471756 
	C475.329895,137.066986 485.719208,137.044571 496.581696,137.052353 
z"/>
<path fill="#0D65B3" opacity="1.000000" stroke="none" 
	d="
M623.574402,377.968994 
	C624.865417,378.454102 625.795410,378.946014 626.730347,380.042297 
	C623.188538,387.940491 618.357666,394.907410 616.398132,402.605255 
	C613.506958,413.963074 613.666748,425.847992 616.340759,437.457886 
	C617.537354,442.653015 617.931458,448.476898 620.660095,452.760315 
	C623.901550,457.848694 628.864990,462.115662 633.778564,465.813232 
	C650.675232,478.528229 671.825623,466.126251 678.412476,452.345001 
	C684.038757,440.573547 684.020081,427.157867 683.693176,414.234833 
	C683.441650,404.289825 680.641663,394.639221 675.701233,385.920197 
	C673.427063,381.906921 671.575928,376.987671 666.000732,375.988007 
	C665.911743,374.536011 665.822815,373.084045 665.862549,371.334747 
	C666.425537,371.037720 666.859985,371.037964 667.618774,371.058044 
	C671.232239,373.793304 674.405396,376.665710 677.832520,379.194000 
	C687.047668,385.992371 691.853943,395.296906 695.043884,406.126648 
	C698.192688,416.816925 697.374023,427.386108 694.540283,437.461700 
	C692.861694,443.430237 691.737183,450.847748 685.028076,454.557068 
	C684.049377,455.098145 683.244934,456.084259 682.563721,457.013916 
	C672.873718,470.238495 659.049622,474.087128 643.784241,472.773834 
	C634.567932,471.981018 626.317322,467.830444 619.338562,461.056488 
	C611.355652,453.307800 605.627502,444.636810 603.707642,433.577820 
	C601.465271,420.660980 601.184937,407.583099 607.496826,395.977142 
	C611.201355,389.165527 615.045227,381.380188 623.574402,377.968994 
z"/>
<path fill="#276BA2" opacity="1.000000" stroke="none" 
	d="
M361.710022,455.247070 
	C361.891052,456.617218 361.796387,458.236084 361.346619,459.905090 
	C361.139099,458.468781 361.286713,456.982300 361.710022,455.247070 
z"/>
<path fill="#2D6CA1" opacity="1.000000" stroke="none" 
	d="
M218.139465,221.970428 
	C222.672989,221.641235 226.825623,220.837326 230.887238,221.164185 
	C238.701111,221.792923 246.474976,222.981094 254.243759,224.089218 
	C261.251953,225.088867 266.835480,232.153351 267.963409,240.999222 
	C268.945862,248.703857 266.388916,255.251541 261.495026,260.999268 
	C260.750275,261.873962 259.393341,262.588196 258.250610,262.705597 
	C249.893692,263.564178 241.528717,264.646729 233.146744,264.848877 
	C227.862457,264.976318 222.518967,266.834106 217.120377,264.155029 
	C213.270416,262.244476 210.683640,260.436981 210.876160,255.599152 
	C211.199768,247.467422 211.236298,239.305740 210.929291,231.174179 
	C210.733459,225.987579 212.701736,223.027023 218.139465,221.970428 
M245.891205,262.821686 
	C249.074921,261.910217 252.362869,261.257935 255.418747,260.028687 
	C260.445007,258.006836 263.985565,254.484985 265.136658,248.923111 
	C267.689362,236.589172 261.922119,227.484802 249.375748,226.080963 
	C238.851883,224.903473 228.161346,225.225540 217.545715,224.852249 
	C214.231888,224.735733 213.813736,226.797760 213.842682,229.410110 
	C213.934708,237.721558 213.854904,246.036301 214.052277,254.344757 
	C214.200607,260.588593 216.297867,262.719543 222.555038,262.870789 
	C230.031601,263.051605 237.516144,262.903595 245.891205,262.821686 
z"/>
<path fill="#2C6999" opacity="1.000000" stroke="none" 
	d="
M250.558685,200.662567 
	C241.803040,201.379379 233.431458,201.939774 225.060471,202.508575 
	C223.613266,202.606903 222.157227,202.663422 220.724564,202.871902 
	C215.114182,203.688309 211.171036,200.706894 211.061493,195.058472 
	C210.890396,186.237350 210.998276,177.410049 211.052551,168.585739 
	C211.073120,165.243576 212.826431,163.009064 216.199326,163.099777 
	C228.440109,163.428970 240.736923,163.407990 252.888916,164.690857 
	C260.879822,165.534454 264.774567,170.332169 264.762909,178.388199 
	C264.754730,184.046631 263.264282,189.847412 261.568695,195.315781 
	C260.057220,200.190369 254.437836,198.596710 250.558685,200.662567 
M213.958420,177.537430 
	C213.955231,183.527008 214.037918,189.518387 213.913330,195.505447 
	C213.849197,198.587448 214.810684,200.090149 218.181549,200.013382 
	C225.664536,199.842972 233.166580,200.199356 240.635086,199.825745 
	C244.725525,199.621140 248.937363,198.854263 252.785965,197.478165 
	C259.153137,195.201508 262.990967,188.540405 262.699005,181.643112 
	C262.327698,172.871552 260.048492,169.728882 251.744522,167.236053 
	C249.238495,166.483749 246.539688,166.134308 243.916168,166.059921 
	C237.432602,165.876022 230.941483,165.945618 224.453384,165.936279 
	C213.910156,165.921082 213.910141,165.928802 213.958420,177.537430 
z"/>
<path fill="#2F6C9E" opacity="1.000000" stroke="none" 
	d="
M665.665649,375.830933 
	C671.575928,376.987671 673.427063,381.906921 675.701233,385.920197 
	C680.641663,394.639221 683.441650,404.289825 683.693176,414.234833 
	C684.020081,427.157867 684.038757,440.573547 678.412476,452.345001 
	C671.825623,466.126251 650.675232,478.528229 633.778564,465.813232 
	C628.864990,462.115662 623.901550,457.848694 620.660095,452.760315 
	C617.931458,448.476898 617.537354,442.653015 616.340759,437.457886 
	C613.666748,425.847992 613.506958,413.963074 616.398132,402.605255 
	C618.357666,394.907410 623.188538,387.940491 626.874390,380.337280 
	C637.343872,370.252563 653.010498,368.472351 665.665649,375.830933 
M680.150330,435.498108 
	C680.255676,426.380707 681.242249,417.159637 680.185364,408.179016 
	C679.351624,401.095093 677.022766,393.744385 673.575378,387.495605 
	C664.043823,370.218781 640.783569,368.459045 628.045532,383.527985 
	C622.130249,390.525757 619.653992,399.020050 618.620789,407.855743 
	C616.783386,423.568939 616.755432,439.190765 624.782288,453.567291 
	C635.667297,473.063049 662.101257,473.677490 673.407593,454.450562 
	C676.610535,449.003815 677.881836,442.421173 680.150330,435.498108 
z"/>
<path fill="#F7FDFD" opacity="1.000000" stroke="none" 
	d="
M245.444214,262.859863 
	C237.516144,262.903595 230.031601,263.051605 222.555038,262.870789 
	C216.297867,262.719543 214.200607,260.588593 214.052277,254.344757 
	C213.854904,246.036301 213.934708,237.721558 213.842682,229.410110 
	C213.813736,226.797760 214.231888,224.735733 217.545715,224.852249 
	C228.161346,225.225540 238.851883,224.903473 249.375748,226.080963 
	C261.922119,227.484802 267.689362,236.589172 265.136658,248.923111 
	C263.985565,254.484985 260.445007,258.006836 255.418747,260.028687 
	C252.362869,261.257935 249.074921,261.910217 245.444214,262.859863 
z"/>
<path fill="#F6FDFD" opacity="1.000000" stroke="none" 
	d="
M213.957611,177.045715 
	C213.910141,165.928802 213.910156,165.921082 224.453384,165.936279 
	C230.941483,165.945618 237.432602,165.876022 243.916168,166.059921 
	C246.539688,166.134308 249.238495,166.483749 251.744522,167.236053 
	C260.048492,169.728882 262.327698,172.871552 262.699005,181.643112 
	C262.990967,188.540405 259.153137,195.201508 252.785965,197.478165 
	C248.937363,198.854263 244.725525,199.621140 240.635086,199.825745 
	C233.166580,200.199356 225.664536,199.842972 218.181549,200.013382 
	C214.810684,200.090149 213.849197,198.587448 213.913330,195.505447 
	C214.037918,189.518387 213.955231,183.527008 213.957611,177.045715 
z"/>
<path fill="#FAFEFE" opacity="1.000000" stroke="none" 
	d="
M680.094727,435.928772 
	C677.881836,442.421173 676.610535,449.003815 673.407593,454.450562 
	C662.101257,473.677490 635.667297,473.063049 624.782288,453.567291 
	C616.755432,439.190765 616.783386,423.568939 618.620789,407.855743 
	C619.653992,399.020050 622.130249,390.525757 628.045532,383.527985 
	C640.783569,368.459045 664.043823,370.218781 673.575378,387.495605 
	C677.022766,393.744385 679.351624,401.095093 680.185364,408.179016 
	C681.242249,417.159637 680.255676,426.380707 680.094727,435.928772 
z"/>
</svg>